<svg width="16" height="34" viewBox="0 0 16 34" fill="none" xmlns="http://www.w3.org/2000/svg">
<path d="M10.8023 4.19227C9.41998 2.56084 8.23059 0.893645 7.98785 0.555095C7.98277 0.547975 7.97606 0.542172 7.96829 0.538167C7.96051 0.534163 7.95189 0.532074 7.94314 0.532074C7.93439 0.532074 7.92577 0.534163 7.91799 0.538167C7.91022 0.542172 7.90351 0.547975 7.89843 0.555095C7.65697 0.897478 6.46757 2.56468 5.08782 4.19611C-6.75632 19.2775 6.95432 29.4558 6.95432 29.4558L7.06547 29.5337C7.17022 31.1076 7.42829 33.3663 7.42829 33.3663H8.45927C8.45927 33.3663 8.71478 31.1127 8.82082 29.5337L8.93324 29.4455C8.93324 29.4455 22.6439 19.2775 10.8023 4.19227ZM7.94442 29.2322C7.94442 29.2322 7.32992 28.7084 7.16384 28.4452V28.4171L7.90737 11.993C7.90903 11.9838 7.91384 11.9756 7.92096 11.9697C7.92808 11.9637 7.93706 11.9605 7.94633 11.9605C7.95561 11.9605 7.96459 11.9637 7.97171 11.9697C7.97883 11.9756 7.98364 11.9838 7.9853 11.993L8.73139 28.4197V28.4478C8.56531 28.7033 7.95081 29.2348 7.95081 29.2348" fill="#00684A"/>
</svg>
